<svg width="172" height="172" viewBox="0 0 172 172" fill="none" xmlns="http://www.w3.org/2000/svg">
<rect width="172" height="172" fill="url(#paint0_linear_14_7)"/>
<g clip-path="url(#clip0_14_7)">
<path fill-rule="evenodd" clip-rule="evenodd" d="M66.2448 132.399H49.6848C45.2153 132.399 42.4342 126.975 44.7007 123.113L51.1709 112.325C54.5476 120.097 59.7515 126.599 66.2448 132.399ZM72.7902 59.6439C88.7314 46.1589 106.465 51.5753 121.435 54.4811C125.858 55.3453 130.38 53.5475 133.016 49.8819L142.944 36.8772C144.546 34.6442 144.303 31.5844 142.366 29.6414C139.874 27.1416 135.722 27.5532 133.768 30.4938C123.146 44.437 124.881 44.5234 105.106 39.9415C100.33 38.8337 95.3692 38.3797 90.5238 39.1627C64.1343 43.4256 44.4636 67.5882 47.0713 95.6022L29.6095 125.973C25.0821 133.704 30.6444 143.999 39.5835 143.999H97.3871C120.516 144.057 135.364 128.941 138.428 108.635C141.747 86.5952 127.616 67.2525 107.65 62.7054C89.0435 58.4656 69.9627 71.3816 69.847 90.5216C69.7661 104.958 80.2491 116.964 93.9642 119.289C104.349 121.047 114.988 114.684 116.086 104.18C117.185 93.723 109.055 84.8971 98.8558 84.8971C95.6641 84.8971 93.0795 87.4897 93.0795 90.6971C93.0795 93.8987 95.6698 96.4971 98.8673 96.4971C102.059 96.4971 104.649 99.0897 104.649 102.297C104.649 105.499 102.059 108.097 98.8673 108.097C88.6677 108.097 80.5265 99.2626 81.6194 88.811C82.7237 78.3014 93.3339 71.9389 103.718 73.7021C117.434 76.0279 127.859 88.0338 127.778 102.464C127.668 121.274 109.026 134.255 90.6626 130.462C72.2408 126.657 58.3927 110.295 58.3927 90.6971C58.3927 78.2387 63.9898 67.0911 72.7902 59.6439Z" fill="url(#paint1_linear_14_7)"/>
</g>
<defs>
<linearGradient id="paint0_linear_14_7" x1="86" y1="86" x2="172" y2="172" gradientUnits="userSpaceOnUse">
<stop stop-color="#FF5E5E"/>
<stop offset="1" stop-color="#660002"/>
</linearGradient>
<linearGradient id="paint1_linear_14_7" x1="73.3125" y1="57.4531" x2="144" y2="144" gradientUnits="userSpaceOnUse">
<stop stop-color="white"/>
<stop offset="1" stop-color="white" stop-opacity="0.28"/>
</linearGradient>
<clipPath id="clip0_14_7">
<rect width="116" height="116" fill="white" transform="translate(28 28)"/>
</clipPath>
</defs>
</svg>
