<svg width="172" height="172" viewBox="0 0 172 172" fill="none" xmlns="http://www.w3.org/2000/svg">
<rect width="172" height="172" fill="url(#paint0_linear_35_104)"/>
<path d="M144.564 87.5919C141.618 45.3349 121.539 23 86.5 23C51.4606 23 31.3822 45.3349 28.4357 87.5919C27.0121 108.005 31.253 123.677 41.0429 134.174C50.8378 144.675 66.1331 150 86.5 150C106.867 150 122.162 144.675 131.957 134.174C141.747 123.677 145.988 108.005 144.564 87.5919ZM74.1036 129.294C74.1036 131.581 72.2209 133.435 69.9347 133.435C67.6484 133.435 65.7933 131.581 65.7933 129.294V121.011C65.7933 118.723 67.6484 116.869 69.9347 116.869C72.2209 116.869 74.1036 118.723 74.1036 121.011V129.294ZM90.6689 129.294C90.6689 131.581 88.7862 133.435 86.5 133.435C84.2137 133.435 82.3586 131.581 82.3586 129.294V121.011C82.3586 118.723 84.2137 116.869 86.5 116.869C88.7862 116.869 90.6689 118.723 90.6689 121.011V129.294ZM107.234 129.294C107.234 131.581 105.352 133.435 103.065 133.435C100.779 133.435 98.9239 131.581 98.9239 129.294V121.011C98.9239 118.723 100.779 116.869 103.065 116.869C105.352 116.869 107.234 118.723 107.234 121.011V129.294ZM123.772 87.8804C123.772 99.2985 114.483 108.587 103.065 108.587H69.9347C58.5166 108.587 49.2282 99.2985 49.2282 87.8804V68.5543C49.2282 57.1362 58.5166 47.8478 69.9347 47.8478H103.065C114.483 47.8478 123.772 57.1362 123.772 68.5543L123.772 87.8804Z" fill="white" fill-opacity="0.8"/>
<path d="M74.1036 129.294C74.1036 131.581 72.2209 133.435 69.9347 133.435C67.6484 133.435 65.7933 131.581 65.7933 129.294V121.011C65.7933 118.723 67.6484 116.869 69.9347 116.869C72.2209 116.869 74.1036 118.723 74.1036 121.011V129.294Z" fill="white" fill-opacity="0.4"/>
<path d="M90.6689 129.294C90.6689 131.581 88.7862 133.435 86.5 133.435C84.2137 133.435 82.3586 131.581 82.3586 129.294V121.011C82.3586 118.723 84.2137 116.869 86.5 116.869C88.7862 116.869 90.6689 118.723 90.6689 121.011V129.294Z" fill="white" fill-opacity="0.4"/>
<path d="M107.234 129.294C107.234 131.581 105.352 133.435 103.065 133.435C100.779 133.435 98.9239 131.581 98.9239 129.294V121.011C98.9239 118.723 100.779 116.869 103.065 116.869C105.352 116.869 107.234 118.723 107.234 121.011V129.294Z" fill="white" fill-opacity="0.4"/>
<path d="M123.772 87.8804C123.772 99.2985 114.483 108.587 103.065 108.587H69.9347C58.5166 108.587 49.2282 99.2985 49.2282 87.8804V68.5543C49.2282 57.1362 58.5166 47.8478 69.9347 47.8478H103.065C114.483 47.8478 123.772 57.1362 123.772 68.5543L123.772 87.8804Z" fill="white" fill-opacity="0.3"/>
<path d="M69.9347 72.6956C72.2219 72.6956 74.0761 70.8415 74.0761 68.5542C74.0761 66.267 72.2219 64.4128 69.9347 64.4128C67.6475 64.4128 65.7933 66.267 65.7933 68.5542C65.7933 70.8415 67.6475 72.6956 69.9347 72.6956Z" fill="white" fill-opacity="0.4"/>
<path d="M78.2175 78.2175C72.2616 78.2175 70.4444 81.2276 69.6869 83.746C67.5135 83.8755 65.7935 85.6768 65.7935 87.8807C65.7935 90.1684 67.6487 92.0221 69.9349 92.0221C75.8504 92.0221 77.1013 88.091 77.511 86.5288C77.6943 86.5125 77.9263 86.5003 78.2175 86.5003C80.5037 86.5003 82.3589 84.6467 82.3589 82.3589C82.3586 80.0712 80.5037 78.2175 78.2175 78.2175Z" fill="white" fill-opacity="0.4"/>
<path d="M103.065 72.6956C105.353 72.6956 107.207 70.8415 107.207 68.5542C107.207 66.267 105.353 64.4128 103.065 64.4128C100.778 64.4128 98.9239 66.267 98.9239 68.5542C98.9239 70.8415 100.778 72.6956 103.065 72.6956Z" fill="white" fill-opacity="0.4"/>
<path d="M86.5 63.0325C81.9327 63.0325 78.2175 66.7477 78.2175 71.315C78.2175 73.6027 80.0726 75.4564 82.3589 75.4564C84.6451 75.4564 86.5003 73.6027 86.5003 71.315C86.5003 73.6027 88.3554 75.4564 90.6416 75.4564C92.9279 75.4564 94.783 73.6027 94.783 71.315C94.7825 66.748 91.0673 63.0325 86.5 63.0325Z" fill="white" fill-opacity="0.4"/>
<path d="M103.313 83.7458C102.556 81.2276 100.738 78.2173 94.7825 78.2173C92.4963 78.2173 90.6411 80.0709 90.6411 82.3587C90.6411 84.6464 92.4963 86.5001 94.7825 86.5001C95.0737 86.5001 95.3057 86.5122 95.489 86.5286C95.8987 88.091 97.1496 92.0218 103.065 92.0218C105.351 92.0218 107.206 90.1682 107.206 87.8804C107.206 85.6766 105.487 83.8752 103.313 83.7458Z" fill="white" fill-opacity="0.4"/>
<defs>
<linearGradient id="paint0_linear_35_104" x1="86.4966" y1="86.4966" x2="171.62" y2="171.62" gradientUnits="userSpaceOnUse">
<stop stop-color="#1A78CF"/>
<stop offset="1" stop-color="#160E60"/>
</linearGradient>
</defs>
</svg>
